# xmcd
#
# Track frame offsets: 
#        150
#        12812
#        23602
#        31590
#        46247
#        59245
#        73335
#        85280
#        94937
#        107160
#        115587
#        126712
#        141997
#        151117
#        159480
#        172197
#
# Disc length: 2465 seconds
#
# Revision: 0
# Processed by: cddbd v1.5.2PL0 Copyright (c) Steve Scherf et al.
# Submitted via: ExactAudioCopy v1.0b2
#
DISCID=da099f10
DTITLE=Varios - Voces Inolvidables del TANGO Vol. 4
DYEAR=1900
DGENRE=Tango
TTITLE0=Alberto Podestá - SI NOS QUEREMOS TODAVÍA
TTITLE1=Jorge Valdés - EN PAZ
TTITLE2=Carlos Dante - TU POLLERA AZUL
TTITLE3=Agustín Irusta - UNA MILONGA
TTITLE4=Oscar Larroca - NO ME DEJES CORAZÓN
TTITLE5=Jorge Casal - PATIO DE LA MOROCHA
TTITLE6=Alberto Podestá - LA PAMPA GAUCHA
TTITLE7=Floreal Ruiz - TE RECUERDO Y NADA MÁS
TTITLE8=Agustín Irusta - PA' QUE BAILEN LOS MUCHACHOS
TTITLE9=Mario Bustos - META GARUFA
TTITLE10=Oscar Larroca - POR ESO TE QUIERO
TTITLE11=Jorge Casal - CIEN GUITARRAS
TTITLE12=Alberto Podestá - CHE MILONGA
TTITLE13=Ricardo Ruiz - PARA LA JUVENTUD
TTITLE14=Agustín Irusta - ESTRELLA
TTITLE15=Oscar Larroca - JUAN MANUEL
EXTD=
EXTT0=
EXTT1=
EXTT2=
EXTT3=
EXTT4=
EXTT5=
EXTT6=
EXTT7=
EXTT8=
EXTT9=
EXTT10=
EXTT11=
EXTT12=
EXTT13=
EXTT14=
EXTT15=
PLAYORDER=
